<svg width="512" height="691" viewBox="0 0 512 691" fill="none" xmlns="http://www.w3.org/2000/svg">
<path fill-rule="evenodd" clip-rule="evenodd" d="M268.076 289.459C256.95 280.987 229.019 277.176 217.145 285.334C205.416 293.527 204.138 306.775 198.672 318.962C193.516 316.531 185.001 320.013 183.506 324.799C181.651 327.055 181.568 333.396 180.289 336.43C124.654 345.287 116.207 388.667 109.51 437.915C100.651 487.889 80.5406 537.754 89.2712 589.178C88.1336 590.824 87.2367 592.425 86.4074 594.325C84.4202 597.707 86.9798 602.493 90.9879 602.308C96.1759 601.852 101.313 601.23 106.525 601.036C120.974 600.534 135.437 600.594 149.892 600.777L151.863 600.803C224.712 601.71 297.556 603.497 370.408 603.971C373.051 603.975 374.345 601.605 373.992 599.266C373.282 594.558 372.622 589.848 371.934 585.137C389.165 589.689 407.484 590.834 424.666 585.616C425.868 584.391 421.866 585.055 421.231 584.869C437.044 574.062 432.322 551.296 430.921 534.899C422.21 478.713 419.14 416.546 385.486 368.601C370.927 349.035 349.582 333.544 325.055 330.058L324.375 329.965C317.203 329.008 309.21 328.7 302.94 324.799C295.888 319.168 292.883 308.765 285.463 308.667C283.013 308.635 279.681 311.735 276.094 313.839C275.827 309.21 273.332 305.303 272.781 301.713L272.737 301.406C272.162 297.221 272.949 293.456 268.076 289.459ZM148.509 439.399C164.145 428.536 204.534 433.994 205.458 434.603C207.494 435.942 208.371 436.06 209.472 437.799C210.559 437.944 211.645 438.093 212.73 438.247C214.908 438.959 213.294 441.637 210.779 440.681C212.292 447.206 207.84 451.846 206.068 458.296C205.493 460.39 206.047 464.156 206.068 466.296C205.896 469.025 202.88 472.247 203.383 474.985C205.17 484.716 214.868 494.209 210.779 503.646C208.07 508.976 199.924 511.694 194.507 513.506C183.285 517.813 163.731 513.344 157.211 503.646C153.733 498.473 149.704 485.425 147.63 481.378L147.171 474.957C146.037 458.998 145.029 441.817 148.509 439.399Z" fill="white"/>
<path fill-rule="evenodd" clip-rule="evenodd" d="M288.187 307.726C287.108 306.77 285.511 307.972 286.197 309.263C287.738 312.165 289.319 314.915 291.388 317.481C292.642 319.037 293.986 320.508 295.347 321.963C291.853 324.986 288.856 328.739 286.026 332.257C282.408 336.756 278.986 341.446 274.924 345.562C270.918 349.622 266.488 352.46 261.132 354.353L260.05 354.729C254.67 356.618 248.919 359.169 245.886 364.264C245.288 365.269 246.492 366.51 247.505 365.883C252.775 362.62 258.967 361.963 264.703 359.807C270.245 357.724 275.075 354.518 279.344 350.427C283.605 346.342 287.182 341.695 290.914 337.146C294.605 332.648 298.578 328.806 302.943 325C309.679 329.533 317.368 331.505 325.186 333.441L326.04 333.653C333.868 335.591 341.654 337.842 348.997 341.217C355.472 344.193 361.841 347.746 367.115 352.588C372.713 357.726 377.071 364.289 381.059 370.707C389.98 385.067 396.252 400.798 401.774 416.72C407.517 433.281 412.32 450.175 416.198 467.269C418.17 475.963 419.772 484.72 421.089 493.538C421.722 497.785 422.285 502.041 422.78 506.307C423.308 510.861 423.429 515.547 424.826 519.927C425.425 521.804 426.839 522.583 428.255 522.517L428.543 526.113C428.924 530.908 429.279 535.705 429.399 540.529C429.598 548.552 429.508 556.551 428.931 564.557L428.849 565.648C428.396 571.491 427.383 578.056 422.99 582.334C418.44 586.765 411.444 588.158 405.312 588.238C391.031 588.424 377.283 581.675 364.646 575.755C351.63 569.657 338.97 562.889 326.614 555.549C320.321 551.811 314.097 547.949 307.951 543.974C304.936 542.022 301.941 540.038 298.969 538.022C297.267 536.867 295.654 535.601 293.921 534.576C294.77 533.786 295.149 532.543 294.438 531.457C299.447 527.108 301.532 519.348 301.776 513.068C301.973 508 301.227 502.945 300.639 497.924C300.342 495.393 299.975 492.865 299.594 490.345C299.443 489.349 299.328 488.284 299.153 487.233C312.68 494.667 326.586 501.288 340.86 507.169C348.177 510.184 355.587 512.895 363.1 515.379L364.623 515.88C371.741 518.211 379.03 520.412 386.389 521.744C386.782 521.816 387.102 521.235 386.682 521.049C379.51 517.885 372.09 515.215 364.811 512.301L363.615 511.813V511.813C363.752 511.806 363.894 511.787 364.043 511.751C368.312 510.721 372.548 509.133 376.735 507.796C380.621 506.555 384.987 505.776 388.619 503.902C388.899 503.758 388.742 503.37 388.47 503.351C384.387 503.068 379.956 504.258 375.953 504.958L374.449 505.221C371.93 505.666 369.355 506.143 366.849 506.766C366.758 505.926 366.289 505.083 365.622 504.588C358.276 499.148 359.022 488.161 358.237 480.059L357.654 474.043C356.63 463.516 355.546 452.99 353.899 442.541C353.811 441.983 352.948 442.143 352.944 442.67C352.859 455.622 353.837 468.515 354.327 481.447L354.403 483.568C354.674 491.548 354.886 499.834 359.911 505.974C359.208 505.563 358.258 505.563 357.689 506.24C356.99 507.072 356.586 508.007 356.598 508.925C352.058 507.021 347.537 505.067 343.038 503.074C328.573 496.665 314.412 489.493 300.625 481.733C299.142 480.898 297.731 481.554 296.998 482.655L296.892 482.64C296.874 482.638 296.856 482.636 296.838 482.635L296.733 482.631C296.729 482.631 296.725 482.631 296.721 482.631C294.78 481.565 292.136 482.324 290.471 483.88C290.422 483.927 290.38 483.977 290.336 484.027C288.228 483.08 286.259 481.802 284.473 480.183C280.817 476.869 277.72 472.771 275.02 468.662C270.048 461.094 265.825 452.678 259.109 446.448C253.653 441.387 246.888 438.236 239.79 436.257C239.82 436.05 239.741 435.829 239.597 435.682C239.233 435.309 238.973 435.179 238.502 435.406C238.464 435.424 238.442 435.45 238.426 435.477L237.734 434.293C237.356 433.651 236.968 433.004 236.833 432.834C236.027 431.82 235.198 430.813 234.356 429.827C232.929 428.158 231.302 426.511 229.419 425.353C225.295 422.82 220.959 424.253 216.72 425.638C214.158 426.475 211.605 427.339 209.047 428.189L208.784 428.275C206.877 428.888 204.645 429.424 203.793 431.444C203.455 432.244 203.403 433.074 203.56 433.879C185.449 429.273 165.333 431.389 147.66 436.796C146.981 437.003 146.304 437.561 146.161 438.294C144.136 448.68 143.234 459.331 144.15 469.894C144.941 479.011 146.961 487.947 150.768 496.294L150.984 496.765C154.562 504.501 160.232 514.038 168.891 516.462C174.12 517.927 179.903 517.063 185.235 516.795C190.418 516.534 195.716 516.496 200.849 515.681C205.421 514.956 209.427 512.906 212.252 509.188C214.69 505.981 215.973 502.104 217.025 498.248C217.506 498.401 217.984 498.564 218.455 498.748C220.441 499.524 222.124 500.776 223.646 502.25C226.859 505.362 229.351 509.141 232.713 512.111C235.756 514.799 239.224 516.89 242.943 518.497C250.651 521.828 258.92 523.159 267.073 524.924L267.641 525.048C273.779 526.395 280.044 528.049 285.461 531.244C285.567 532.185 285.996 533.07 286.682 533.65C285.727 534.547 285.322 535.969 286.162 537.302C288.507 541.025 292.547 543.143 296.174 545.523L296.41 545.679C299.978 548.044 303.577 550.363 307.205 552.634C314.581 557.253 322.111 561.617 329.747 565.789C342.029 572.499 354.575 578.829 367.348 584.571C366.581 588.343 366.861 592.232 366.285 596.03L366.197 596.572C365.95 597.981 366.283 599.16 367.254 600.081L367.356 600.175L367.354 600.162L367.446 600.246L367.476 600.271L367.466 600.263C367.578 600.366 367.693 600.461 367.811 600.543L367.961 600.639V600.639C368.896 601.207 370.099 601.201 371.056 600.699L371.166 600.639L371.35 600.534C372.614 599.806 373.486 598.004 372.962 596.572C371.672 593.052 371.185 589.296 369.994 585.753L370.939 586.175V586.175L372.184 586.718C385.65 592.542 400.608 597.446 415.281 593.476C421.763 591.721 427.823 588.01 431.066 581.96C434.258 576.007 434.71 569.096 434.879 562.474C435.088 554.302 434.65 546.004 433.572 537.902C432.849 532.463 431.974 526.922 430.625 521.539C431.319 520.927 431.829 520.048 431.964 518.96C432.601 513.819 431.486 508.475 430.804 503.361C430.137 498.367 429.401 493.384 428.568 488.415C426.886 478.382 424.932 468.37 422.658 458.455C418.609 440.807 413.264 423.474 406.828 406.554L406.264 405.08C400.317 389.616 393.431 374.481 383.842 360.895C379.255 354.395 374.407 348.502 367.926 343.818C361.854 339.43 355.005 336.27 347.937 333.855C340.861 331.438 333.589 329.819 326.188 328.811C318.671 327.788 310.737 327.16 303.726 324.077C304.613 322.487 303.852 320.34 302.359 319.354C297.335 316.035 292.69 311.716 288.187 307.726ZM127.374 452.066C127.163 451.747 126.663 451.949 126.756 452.327C129.199 462.337 131.493 472.368 132.99 482.57C135.694 500.983 135.196 519.637 134.975 538.186L134.964 539.145C134.851 549.137 134.693 559.129 134.363 569.116C134.196 574.164 133.866 579.261 134.045 584.311C134.143 587.051 134.873 589.642 135.132 592.349C135.359 594.716 135.157 597.119 135.044 599.489C134.968 601.065 137.294 600.998 137.452 599.489L137.654 597.538C137.917 595.068 138.242 592.614 139.051 590.25C140.024 587.407 140.491 584.615 140.828 581.63C141.345 577.056 141.575 572.437 141.775 567.831L141.911 564.645C142.745 545.396 142.716 526.056 141.366 506.828L141.268 505.454C139.932 487.278 137.614 467.64 127.374 452.066ZM179.455 337.51C180.093 337.247 179.869 336.282 179.163 336.45L177.877 336.757C168.46 339.013 159.214 341.457 150.424 345.655C141.628 349.855 134.182 356.125 128.265 363.836C116.763 378.823 111.983 397.038 108.21 415.236C104.017 435.457 100.199 455.752 95.9688 475.967L95.1834 479.732C91.2694 498.56 87.5741 517.398 84.8513 536.449L84.6557 537.831C81.91 557.421 80.2584 577.69 83.2545 597.331C83.8472 601.217 90.313 600.249 90.0601 596.41C89.33 585.311 88.8072 574.271 89.3124 563.147C89.8181 552.021 90.8615 540.944 92.4168 529.915C93.7258 520.634 95.6769 511.469 97.4037 502.261L97.6743 500.807C99.1202 492.976 100.611 485.153 102.098 477.329L104.321 465.615C107.652 448.075 111.048 430.519 114.886 413.09L115.114 412.064C118.869 395.295 124.406 377.73 135.671 364.413C147.103 350.9 163.469 344.094 179.455 337.51ZM220.995 515.375C220.72 514.762 219.758 514.829 219.462 515.375C218.304 517.512 218.175 520.241 217.956 522.654L217.933 522.902C217.655 525.847 217.408 528.802 217.257 531.756C216.971 537.363 216.834 542.963 216.851 548.577C216.869 554.33 216.985 560.077 217.295 565.822L217.379 567.361C217.663 572.353 218.137 577.922 220.509 582.286C221.371 583.873 223.716 583.407 224.216 581.802C225.852 576.548 225.012 570.319 224.592 564.938L224.266 560.739C223.944 556.54 223.636 552.339 223.392 548.135C223.058 542.383 222.782 536.626 222.516 530.871C222.43 529.002 222.337 527.132 222.238 525.263L222.087 522.46C221.957 520.115 221.968 517.542 220.995 515.375ZM404.949 522.821L404.224 522.121C402.001 519.945 399.191 516.594 395.905 516.802C394.594 516.884 393.759 517.973 394.031 519.262C394.611 522.019 397.423 523.45 399.447 525.133C401.665 526.976 403.755 528.946 405.84 530.935C407.691 532.699 409.471 534.513 411.207 536.383L411.857 537.088C412.479 537.767 416.913 541.778 416.434 542.818L416.408 542.865C416.274 543.064 416.496 543.338 416.718 543.268C418.632 542.663 418.513 541.022 417.789 539.359C416.398 536.164 413.963 533.209 411.836 530.48C409.715 527.759 407.419 525.224 404.949 522.821V522.821ZM214.057 442.699C215.537 439.199 220.991 439.272 224.088 439.482C231.885 440.009 240.321 441.981 247.259 445.626C254.452 449.405 259.296 455.459 263.632 462.154L263.834 462.468C268.06 469.037 272.129 476.813 278.746 481.33C282.115 483.631 286.051 485.732 290.139 486.642C290.42 487.135 290.875 487.526 291.471 487.668L291.748 487.732C292.913 487.989 294.722 488.273 296.285 488.103C296.274 488.868 296.282 489.626 296.263 490.351C296.208 492.426 296.185 494.511 296.185 496.588C296.184 500.94 296.418 505.301 296.236 509.652C296.075 513.501 295.532 517.523 293.684 520.963C292.328 523.487 290.54 525.158 288.38 526.753C283.068 523.515 277.062 521.542 270.966 520.058C263.593 518.263 256.044 517.066 248.839 514.632C245.371 513.461 242.038 511.928 239.017 509.846C235.811 507.635 233.362 504.644 230.843 501.718L230.449 501.263C227.878 498.314 225.072 495.492 221.439 493.893C218.309 492.516 214.185 492.271 211.449 490.14C210.018 489.024 209.898 487.406 209.748 485.749C211.5 486 213.355 485.598 215.102 485.394L216.006 485.287C217.658 485.091 219.271 484.875 220.897 484.455C221.199 484.377 221.199 483.922 220.897 483.844C218.976 483.348 217.072 483.136 215.102 482.905L214.639 482.848C212.857 482.614 210.983 482.261 209.235 482.654C208.922 481.46 208.469 480.32 207.833 479.179C206.941 477.576 205.253 475.758 205.025 473.885C204.957 473.326 205.087 472.666 205.351 472.172L205.442 472.003C205.553 471.804 205.684 471.604 205.876 471.48C205.897 471.505 205.942 471.533 206.04 471.564C207.386 471.987 208.559 471.329 209.182 470.314C211.826 470.642 214.712 470.531 217.192 470.641L219.699 470.762C222.378 470.885 225.179 470.939 227.697 470.398C228.048 470.322 228.154 469.737 227.802 469.587C224.707 468.263 220.953 467.841 217.64 467.332C215.789 467.048 213.925 466.831 212.069 466.581C210.833 466.414 209.521 466.139 208.241 466.073C205.031 462.076 206.76 455.771 211.228 454.05C212.856 454.765 214.319 454.349 216.097 454.196C217.872 454.044 219.651 453.941 221.434 453.948C225.005 453.964 228.789 454.904 232.325 454.499C232.9 454.433 233.434 453.668 232.863 453.201C230.156 450.991 226.276 450.271 222.84 449.8L222.128 449.705C220.976 449.554 219.575 449.334 218.122 449.202C217.794 448.561 217.204 448.077 216.319 447.957C216.055 447.921 215.791 447.899 215.527 447.877L215.531 447.851V447.851C213.371 447.747 213.465 444.099 214.057 442.699ZM361.919 510.953C361.957 511.012 361.999 511.068 362.043 511.122L362.112 511.202L361.757 511.058L361.919 510.953V510.953ZM176.368 434.879C185.459 433.902 194.563 434.108 203.68 434.37C204.41 436.755 206.948 438.788 209.407 438.865C207.481 441.797 207.282 445.765 208.633 448.875C205.765 450.017 203.295 452.068 201.795 454.989C199.715 459.038 199.987 463.544 202.042 467.286C200.288 468.874 199.253 471.454 199.356 473.885C199.472 476.596 201.088 478.912 202.431 481.157C203.881 483.585 203.93 485.722 204.376 488.441C205.028 492.42 207.711 494.834 211.164 496.341L210.981 497.063C210.091 500.528 208.983 504.185 206.439 506.719C203.166 509.979 198.088 509.949 193.764 510.155L193.555 510.166C189.596 510.363 185.638 510.595 181.679 510.82L178.71 510.986C174.153 511.236 169.776 511.267 166.056 508.253C159.981 503.335 155.817 495.195 153.182 487.989C147.65 472.863 147.583 456.264 150.123 440.512C158.639 437.766 167.475 435.834 176.368 434.879ZM251.969 459.973L251.902 459.977C250.03 460.191 248.744 461.707 248.286 463.505C247.621 466.118 247.947 468.481 246.347 470.84C244.701 473.266 243.688 475.209 243.449 478.206C243.351 479.439 243.396 480.669 243.121 481.876L242.922 482.722C242.711 483.624 242.538 484.492 242.643 485.46C242.739 486.343 243.169 487.031 244.055 487.314C246.941 488.237 249.169 486.111 249.914 483.421C250.558 481.098 249.698 478.33 250.607 476.148C251.11 474.939 252.039 473.927 252.563 472.71C253.083 471.503 253.344 470.242 253.427 468.931C253.586 466.45 251.392 463.469 252.616 461.221C252.876 460.741 252.581 459.958 251.969 459.973ZM290.302 434.371C288.348 433.974 286.131 433.063 284.204 433.82C283.213 434.209 282.724 435.417 283.561 436.257C285.014 437.714 287.126 437.795 289.083 438.139L289.255 438.17C291.57 438.598 293.888 439.004 296.21 439.389C300.577 440.112 304.956 440.752 309.349 441.296C313.862 441.854 318.387 442.351 322.918 442.725L324.672 442.869C328.5 443.175 332.483 443.406 336.239 442.82C336.784 442.735 336.696 441.94 336.239 441.801C332.124 440.555 327.611 440.221 323.357 439.694C318.835 439.133 314.32 438.541 309.817 437.837C305.321 437.135 300.831 436.381 296.358 435.548C294.336 435.173 292.317 434.78 290.302 434.371ZM219.788 430.372C221.503 429.765 223.389 428.865 225.247 429.166C228.452 429.685 231.304 432.808 233.841 434.864L232.567 434.617C226.05 433.364 217.42 432.014 211.949 436.158C211.935 436.134 211.925 436.11 211.909 436.087C211.467 435.416 210.956 434.892 210.397 434.319C210.344 434.268 210.292 434.216 210.241 434.164L209.94 433.843L210.629 433.604C212.105 433.082 213.854 432.408 214.13 432.31L214.149 432.303C216.031 431.666 217.915 431.036 219.788 430.372ZM273.332 293.761C273.6 290.312 268.232 290.34 267.966 293.761C267.386 301.23 269.067 308.628 272.684 315.176C272.711 315.224 272.74 315.266 272.768 315.311C270.505 316.489 268.217 317.618 265.878 318.628C262.886 319.92 259.837 321.096 256.734 322.094C253.927 322.998 250.469 323.354 248.109 325.234C243.133 329.197 245.002 337.421 245.959 342.752L246.109 343.594C246.585 346.337 246.93 349.152 245.774 351.784C244.539 354.597 242.041 356.683 239.814 358.695L239.364 359.103C237.39 360.901 235.135 363.086 233.687 365.524C232.366 362.791 230.564 360.558 228.66 358.044C227.301 356.25 228.268 355.659 229.244 353.907C230.184 352.22 230.643 350.422 230.349 348.498C229.807 344.944 226.967 342.377 224.14 340.448C220.802 338.171 217.076 336.485 213.625 334.366C206.533 330.015 199.627 325.04 193.405 319.514C193.233 319.361 192.936 319.561 193.073 319.77C197.988 327.246 203.751 333.707 210.834 339.191C213.706 341.414 216.723 343.259 219.76 345.198L220.633 345.758C221.853 346.548 223.374 347.604 223.925 348.949C224.48 350.302 223.297 351.323 222.66 352.444C220.638 356.002 221.614 359.322 224.011 362.34L224.123 362.479C226.505 365.416 228.311 368.146 229.174 371.897C231.03 379.955 228.445 388.349 225.74 395.913L225.633 396.212C224.17 400.289 222.614 404.337 221.343 408.48L220.993 409.625C219.841 413.437 218.898 417.197 220.19 421.115C220.629 422.448 222.447 422.763 223.202 421.509C225.865 417.085 226.529 411.762 228.199 406.898C229.826 402.158 231.694 397.504 233.265 392.744C235.289 386.616 236.643 380.02 235.908 373.592C235.93 373.555 235.954 373.52 235.972 373.48L236.487 372.353C237.892 369.302 239.248 366.637 241.803 364.204C244.468 361.667 247.36 359.421 249.456 356.35C254.011 349.678 251.194 342.256 250.644 334.961L250.581 334.067C250.481 332.552 250.426 330.494 251.416 329.446C252.528 328.266 255.138 327.964 256.615 327.442C260.43 326.092 264.19 324.518 267.772 322.629C271.181 320.83 274.483 318.843 277.558 316.515L279.116 315.343C281.575 313.487 284.125 311.461 285.773 308.936C285.963 308.645 285.64 308.176 285.296 308.315C282.544 309.431 280.031 311.207 277.457 312.753C277.417 312.658 277.37 312.563 277.318 312.468C274.133 306.704 272.823 300.317 273.332 293.761ZM185.452 333.254C184.356 330.248 179.36 330.48 179.56 334.052C179.712 336.795 180.877 339.272 181.942 341.764L182.056 342.031C183.156 344.627 184.426 347.064 185.946 349.443C188.85 353.991 192.251 358.212 195.884 362.195C199.178 365.806 203.501 368.015 208.483 367.648C210.582 367.493 212.7 366.959 214.54 365.911C216.724 364.665 219.097 360.924 221.884 361.83C222.153 361.917 222.405 361.522 222.172 361.335C218.954 358.744 215.302 362.762 212.222 363.73C207.58 365.188 202.816 363.576 199.829 359.823C196.709 355.905 193.838 351.518 191.217 347.251C189.885 345.085 188.671 342.837 187.621 340.519C186.563 338.18 186.322 335.639 185.452 333.254ZM192.934 314.754C193.07 314.339 192.554 313.944 192.189 314.181C190.075 315.558 188.243 317.376 186.293 318.971C184.129 320.739 181.949 322.472 179.736 324.178C176.509 326.666 180.252 331.245 183.092 328.528C186.979 324.811 191.236 319.95 192.934 314.754ZM204.542 300.204C203.683 296.891 198.603 298.257 199.344 301.531L199.368 301.631C200.77 307.038 198.773 312.544 194.51 316.049L194.353 316.177C191.656 318.335 195.477 322.109 198.147 319.971C203.977 315.305 206.402 307.378 204.542 300.204Z" fill="black"/>
<path fill-rule="evenodd" clip-rule="evenodd" d="M149.679 202.861C151.387 174.824 160.484 143.037 187.258 129.271C246.281 105.58 323.885 165.24 327.994 226.186C329.426 247.049 317.844 269.846 296.679 275.646C291.973 281.881 284.856 285.689 277.832 288.994C194.169 332.404 140.127 297.116 149.679 202.861V202.861Z" fill="white"/>
<path fill-rule="evenodd" clip-rule="evenodd" d="M130.619 185.421C133.576 177.208 136.699 169.058 139.985 160.972C143.185 153.102 146.075 145.062 150.049 137.564C173.783 92.787 216.943 92.787 239.252 98.6377C250.822 93.6524 272.492 95.0586 284.539 99.5572C304.042 106.84 327.816 135.489 335.945 148.36C353.891 176.78 365.091 214.605 353.17 247.445C351.612 251.737 349.625 255.712 347.388 259.543C348.797 261.454 350.419 263.263 352.216 265.041C357.556 270.324 362.896 275.434 367.509 281.393C372.093 287.316 375.893 293.614 378.722 300.558C384.057 313.653 384.314 328.481 377.261 340.976C371.125 351.848 360.256 359.944 348.01 360.716C347.381 360.803 346.751 360.884 346.119 360.947C344.496 363.62 342.518 366.081 340.26 368.227C333.341 374.808 316.85 378.184 307.444 378.4C306.962 378.788 306.475 379.176 305.988 379.559C300.233 384.089 294.193 388.659 287.586 391.882C283.11 394.068 277.242 395.894 272.573 394.316C270.455 395.732 266.98 395.434 264.879 394.276C261.427 392.374 258.619 388.948 256.911 385.441C252.769 376.926 253.765 367.609 254.829 358.513C256.001 348.466 257.127 338.414 258.272 328.367C259.169 320.51 260.106 312.523 262.495 304.955C263.73 301.034 265.348 297.265 267.439 293.722C267.385 293.425 267.394 293.127 267.48 292.848C268.165 290.621 269.58 289.454 271.257 287.939C271.473 287.745 271.69 287.547 271.901 287.344C272.74 286.389 273.637 285.501 274.597 284.748C274.966 284.374 275.331 283.995 275.696 283.617C278.73 280.439 281.596 277.099 284.143 273.52C286.612 270.049 288.843 266.425 290.966 262.733C293.125 258.979 294.554 254.836 296.708 251.108C296.893 250.788 297.362 250.725 297.623 250.991C298.29 251.681 298.718 252.447 298.637 253.254L298.971 253.304C299.097 252.087 300.219 251.095 301.743 251.361C304.023 251.758 305.898 251.906 307.872 251.149C307.525 248.846 307.205 246.538 306.89 244.226C306.313 239.97 305.776 235.702 305.317 231.433C304.203 231.699 303.099 232.082 302.017 232.569C300.476 233.259 299.02 234.187 297.776 235.328C296.55 236.455 295.703 237.974 294.207 238.758C292.485 239.655 290.407 238.172 290.912 236.225C291.935 232.29 297.727 230.036 301.31 229.292C302.54 229.035 303.798 228.927 305.055 228.954C304.771 226.214 304.519 223.473 304.312 220.728C304.212 219.43 304.122 218.132 304.037 216.829C301.251 215.986 298.268 215.734 295.37 216.13C294.414 216.892 293.459 217.645 292.535 218.407C289.601 220.832 286.68 223.27 283.795 225.754C283.534 225.975 283.277 226.196 283.016 226.421C281.303 227.895 279.167 226.434 279.455 224.347C281.808 207.246 271.334 193.642 259.07 183.104C245.495 171.434 220.814 170.075 204.67 149.861C197.235 151.374 180.634 155.869 173.783 166.787C164.192 182.085 165.445 195.792 164.715 213.146C163.985 230.514 162.128 248.629 166.072 265.753C169.709 281.543 179.557 295.034 194.835 301.236C195.214 301.39 195.597 301.538 195.98 301.683C203.881 304.662 212.503 305.505 220.814 303.936C230.013 302.196 237.693 297.986 245.346 292.807C245.788 292.514 246.432 293.118 246.099 293.56C236.012 306.929 216.199 311.396 200.483 307.867C199.748 307.7 199.018 307.52 198.292 307.322C201.808 317.432 201.1 328.529 196.521 338.374C193.767 344.297 189.567 349.422 184.451 353.465C178.813 357.918 171.818 361.515 167.906 367.767C164.323 373.496 165.386 379.933 171.521 383.241C173.066 384.08 173.661 386.789 172.129 387.979C171.543 388.43 170.957 388.889 170.358 389.34C166.923 391.932 157.49 396.8 155.962 396.98C142.396 398.589 133.274 388.628 127.428 376.877C120.564 363.084 122.349 346.275 129.912 333.14C135.978 322.602 147.926 312.217 143.176 298.879C141.481 294.115 138.015 290.053 134.648 286.384C130.808 282.206 126.68 278.293 122.998 273.966C119.338 269.67 116.093 264.996 114.281 259.605C111.636 251.726 112.952 243.207 114.939 235.341C119.198 218.456 124.728 201.796 130.619 185.421Z" fill="black"/>
<path fill-rule="evenodd" clip-rule="evenodd" d="M230.604 249.029C222.878 248.091 215.389 250.456 207.836 251.649C203.849 252.278 199.856 252.748 195.82 252.923C195.009 252.958 194.196 252.979 193.384 252.995C193.309 252.28 192.908 251.624 192.041 251.23C190.264 250.425 188.841 250.061 186.89 250.139C185.104 250.209 183.311 250.393 181.552 250.715C178.358 251.301 175.15 252.63 172.813 254.939C167.406 260.282 168.229 268.863 172.407 274.683C181.039 286.708 196.794 287.266 210.287 287.109L211.532 287.093C223.818 286.917 241.395 288.749 246.977 274.77C249.029 269.629 248.744 263.67 246.231 258.74C243.234 252.859 236.924 249.796 230.604 249.029ZM192.227 269.05L192.338 269.055C198.002 269.273 203.665 269.427 209.333 269.527C209.163 270.982 208.99 272.439 208.792 273.891C208.637 275.034 208.471 276.176 208.298 277.316C208.224 277.799 207.955 278.548 208.031 279.027L208.059 279.216V279.216C207.768 279.347 207.504 279.559 207.307 279.867C207.239 279.974 207.19 280.081 207.14 280.188C202.74 280.222 198.005 280.137 193.519 279.337L193.51 279.24V279.24C193.429 278.667 193.19 278.281 192.874 278.016C192.558 276.189 192.587 274.241 192.465 272.428C192.389 271.302 192.307 270.176 192.227 269.05ZM213.662 269.604C217.745 269.674 221.829 269.727 225.911 269.677L227.764 269.649V269.649C227.373 271.748 226.947 273.841 226.593 275.954C226.224 278.157 228.163 279.558 229.841 279.501C229.652 279.532 229.464 279.564 229.276 279.59C224.033 280.332 218.589 280.135 213.269 280.129C213.555 278.459 213.439 276.573 213.482 275.179L213.49 274.963C213.572 273.176 213.629 271.39 213.662 269.604ZM241.394 269.219C241.253 270.311 240.977 271.379 240.564 272.374C238.822 276.577 234.826 278.538 230.599 279.364C231.332 279.111 231.915 278.502 232.062 277.46C232.428 274.868 232.56 272.233 232.57 269.601C235.516 269.574 238.482 269.511 241.394 269.219ZM176.863 268.321C178.961 268.816 181.398 268.59 183.456 268.683C185.384 268.771 187.313 268.847 189.241 268.925C189.15 270.241 189.062 271.557 188.965 272.873C188.841 274.573 188.83 276.37 188.504 278.063C184.624 276.739 181.147 274.615 178.538 271.219C177.888 270.373 177.306 269.38 176.863 268.321ZM231.491 255.925C234.982 256.751 238.287 258.498 240.063 261.694C241.117 263.59 241.581 265.837 241.492 268.052C238.541 267.708 235.539 267.578 232.551 267.47C232.541 266.932 232.528 266.395 232.512 265.858L232.466 264.484C232.385 261.862 232.344 258.57 231.491 255.925ZM213.418 256.244L214.955 256.072C219.224 255.585 223.491 255.075 227.761 255.367C228.379 255.41 229.006 255.477 229.635 255.569C228.88 258.293 228.944 261.492 228.628 264.188C228.507 265.23 228.353 266.264 228.182 267.294L227.442 267.259V267.259C222.86 267.011 218.274 266.858 213.689 266.676C213.69 265.815 213.685 264.954 213.671 264.092L213.654 263.23C213.602 261.029 213.744 258.549 213.418 256.244ZM191.978 255.895C196.449 256.617 201.071 256.77 205.464 256.776C207.218 256.778 208.971 256.67 210.724 256.515C210.61 257.448 210.55 258.392 210.465 259.312C210.292 261.172 210.094 263.029 209.879 264.884L209.687 266.507V266.507C204.051 266.252 198.416 265.976 192.782 265.69L191.987 265.647V265.647L191.764 262.527C191.612 260.447 191.445 258.367 191.21 256.296L191.386 256.233V256.233C191.594 256.147 191.791 256.03 191.978 255.895ZM190.036 256.669C189.789 259.611 189.653 262.564 189.472 265.51L185.757 265.312C185.138 265.278 184.519 265.244 183.9 265.208C181.494 265.069 178.401 264.34 176.021 265.02C175.839 262.857 176.458 260.749 178.41 259.296C181.838 256.743 186.202 257.652 190.036 256.669ZM202.726 230.375C197.195 227.208 183.318 223.97 182.439 233.925C182.034 238.506 185.44 242.301 189.416 243.995L189.566 244.057C193.295 245.591 199.906 247.323 203.133 243.998C205.819 241.23 202.257 236.268 198.919 238.535C197.203 239.7 193.593 238.841 191.679 238.287L191.559 238.252C189.493 237.645 186.739 235.702 187.593 233.158C188.349 230.908 191.565 230.497 193.58 230.424C196.586 230.316 199.512 231.015 202.491 231.242C202.963 231.278 203.109 230.594 202.726 230.375ZM179.815 214.368C172.308 214.016 167.638 222.214 169.364 228.93C169.663 230.089 170.959 231.227 172.21 231.097L172.525 231.068C172.685 231.052 172.846 231.032 172.994 230.991C174.182 230.662 175.247 229.426 175.161 228.145L175.138 227.772C174.963 224.599 175.306 220.943 179.077 220.175C182.275 219.523 184.06 222.601 184.098 225.435C184.105 225.938 184.67 226.289 185.115 226.019C187.427 224.612 187.827 221.813 186.944 219.403C185.825 216.349 183.024 214.518 179.815 214.368ZM235.523 216.126C230.06 214.303 224.166 217.216 221.521 222.046C220.593 222.315 219.666 223.03 219.795 224.125C219.981 225.701 220.262 226.694 221.354 227.889C223.063 229.759 226.263 228.803 226.974 226.502L227.004 226.398C227.811 223.423 231.085 221.461 234.067 222.502C237.551 223.718 237.45 227.398 239.894 229.542C240.181 229.794 240.525 229.834 240.869 229.668C243.465 228.413 242.998 224.638 242.073 222.477C240.859 219.641 238.5 217.119 235.523 216.126ZM242.963 199.535C238.536 195.018 226.993 190.646 223.965 198.989C223.388 200.577 224.616 202.72 226.27 203.049C228.979 203.588 231.382 202.412 234.072 202.623C236.251 202.795 238.523 203.523 240.264 204.873C245.088 208.61 246.149 214.932 249.51 219.689C249.673 219.921 249.991 219.824 250.021 219.55C250.786 212.625 247.812 204.483 242.963 199.535ZM185.23 195.088C182.292 194.051 178.966 194.139 176.013 195.06C173.038 195.987 170.307 197.749 168.203 200.051C167.249 201.095 166.365 202.248 165.657 203.476C165.28 204.126 164.885 205.47 164.457 206.27C162.143 207.606 161.154 210.651 163.226 212.817L163.319 212.912L163.596 213.187C164.71 214.29 166.389 214.768 167.909 214.327C171.311 213.343 171.725 210.663 172.902 207.819C173.68 205.94 175.013 204.278 176.629 203.057C180.448 200.172 186.709 199.253 191.307 200.612C191.552 200.685 191.839 200.373 191.665 200.147C190.794 199.018 190.291 198.092 189.125 197.181C187.941 196.257 186.649 195.589 185.23 195.088Z" fill="black"/>
<path fill-rule="evenodd" clip-rule="evenodd" d="M147.79 218.29C152.087 247.359 182.084 250.573 187.413 221.715C186.558 221.341 185.942 220.603 186.071 219.172C186.101 212.883 184.149 206.236 178.477 202.739C172.615 199.13 165.755 198.772 158.971 198.863C146.026 198.555 146.298 209.376 147.79 218.29M192.109 205.648C196.172 205.477 201.312 205.62 204.951 208.096C205.952 205.401 208.551 202.524 211.178 200.985C201.415 201.271 191.365 200.31 181.529 199.564C183.883 201.169 186.074 203.581 187.497 206.369C188.818 205.664 190.71 205.73 192.109 205.648M210.016 221.372C221.282 260.153 249.402 243.25 252.467 238.28C257.997 230.055 259.037 210.063 254.221 204.717C247.326 199.883 237.565 201.127 229.42 201.009C214.456 201.211 203.828 205.688 210.016 221.372M134.489 203.535C137.549 203.135 140.82 203.054 143.666 204.402C144.542 200.678 147.293 197.564 150.399 196.193C150.774 195.722 150.718 195.469 152.002 195.539C159.887 193.169 168.711 194.423 176.288 196.854C188.255 197.862 200.81 198.656 212.878 200.045C224.183 194.968 258.298 194.224 260.418 206.738C263.085 206.339 267.626 204.24 269.867 207.087C286.305 204.3 303.29 208.174 319.799 209.899C323.954 210.664 326.094 218.912 321.377 218.799C318.725 218.079 321.459 213.663 317.888 213.331C301.96 211.591 286.38 209.123 270.288 208.834C270.848 211.613 259.645 211.793 259.48 210.171C259.456 210.183 259.431 210.191 259.406 210.202C262.175 220.52 259.676 235.368 254.673 241.766C247.664 250.144 230.066 252.547 222.263 247.157C212.197 242.182 201.726 217.21 204.667 208.913C199.329 207.221 194.052 207.729 188.512 208.591C189.78 212.174 191.97 220.994 188.82 221.759C189.398 239.271 173.462 250.197 158.772 243.014C146.057 237.045 141.611 218.15 143.167 206.682C141.584 209.74 128.293 206.41 134.489 203.535" fill="black"/>
</svg>
