<svg xmlns="http://www.w3.org/2000/svg" viewBox="0 0 56 59.74"><defs><style>.cls-1{fill:#fff;}.cls-1,.cls-2{fill-rule:evenodd;}</style></defs><title>logo-small_1</title><g id="Layer_2" data-name="Layer 2"><g id="Layer_1-2" data-name="Layer 1"><path class="cls-1" d="M55.7,59.74a33.87,33.87,0,0,0-4.54-9.54,17.28,17.28,0,0,0-11.11-7.08l-.12,0a9.8,9.8,0,0,1-3.94-1c-1.3-1-1.85-2.95-3.22-3-.45,0-1.06.57-1.72,1a17.89,17.89,0,0,0-.61-2.22v-.06c-.1-.77,0-1.46-.85-2.2-2-1.55-7.18-2.25-9.36-.76s-2.39,4-3.4,6.19A2.28,2.28,0,0,0,14,42.15c-.34.41-.35,1.58-.59,2.14C4.44,45.72,2.16,52.07.91,59.74Z"/><path d="M30.84,46a6.59,6.59,0,0,1-2.54,1.61l-.2.07a4.67,4.67,0,0,0-2.6,1.75.22.22,0,0,0,.3.3A17.18,17.18,0,0,1,29,48.58a7.88,7.88,0,0,0,2.69-1.72,29.06,29.06,0,0,0,2.13-2.44A17.24,17.24,0,0,1,36,42.19a12.59,12.59,0,0,0,4.09,1.55l.15,0a23.17,23.17,0,0,1,4.22,1.39,12.54,12.54,0,0,1,3.33,2.09,15.75,15.75,0,0,1,2.57,3.33A42.19,42.19,0,0,1,54.15,59c.08.23.14.47.22.7H56c-.29-.86-.6-1.72-.92-2.56L55,56.9a37.36,37.36,0,0,0-4.12-8.12,13.26,13.26,0,0,0-2.93-3.14,14.16,14.16,0,0,0-3.67-1.83,21.09,21.09,0,0,0-4-.92A15.67,15.67,0,0,1,36.13,42a.7.7,0,0,0-.25-.87A25.37,25.37,0,0,1,33.27,39a.23.23,0,0,0-.36.28,8.72,8.72,0,0,0,1,1.51c.23.29.48.56.73.83a13.9,13.9,0,0,0-1.71,1.89C32.21,44.35,31.58,45.21,30.84,46Z"/><path d="M16.31,49a2.78,2.78,0,0,0,2.31,1,2.57,2.57,0,0,0,1.12-.31c.4-.23.84-.92,1.35-.75a.06.06,0,0,0,.05-.1c-.59-.47-1.26.27-1.83.44A2.08,2.08,0,0,1,17,48.59a24.16,24.16,0,0,1-1.58-2.31A12.3,12.3,0,0,1,14.79,45c-.19-.43-.24-.9-.4-1.34s-1.12-.51-1.08.15a4.26,4.26,0,0,0,.44,1.42l0,0a9.27,9.27,0,0,0,.71,1.36A18,18,0,0,0,16.31,49Z"/><path d="M16.72,41.26a3.53,3.53,0,0,0,1.18-3.63.5.5,0,0,0-1,.24v0a2.58,2.58,0,0,1-.89,2.65l0,0C15.53,41,16.23,41.65,16.72,41.26Z"/><path d="M19.06,44.79c.52.41,1.08.75,1.64,1.11l.16.1a1.55,1.55,0,0,1,.6.59c.1.25-.11.43-.23.64a1.53,1.53,0,0,0,.25,1.82l0,0a4.14,4.14,0,0,1,.93,1.74,8.08,8.08,0,0,1-.63,4.41l0,.05c-.27.75-.56,1.5-.79,2.26l-.07.21a3.6,3.6,0,0,0-.17,2h.67a17.87,17.87,0,0,0,.83-2.5c.3-.87.64-1.73.93-2.6a8.48,8.48,0,0,0,.49-3.52v0l.09-.21a4.58,4.58,0,0,1,1-1.5A9.6,9.6,0,0,0,26.16,48c.83-1.23.32-2.59.21-3.93v-.17a1.17,1.17,0,0,1,.16-.85c.2-.21.68-.27.95-.37a14.22,14.22,0,0,0,2.05-.88,13.23,13.23,0,0,0,1.8-1.12l.29-.22a4.89,4.89,0,0,0,1.22-1.18.08.08,0,0,0-.09-.11,11.45,11.45,0,0,0-1.44.81l0,0a6.06,6.06,0,0,1-.74-3.44c.05-.63-.93-.63-1,0a6.93,6.93,0,0,0,.87,3.94v0c-.42.22-.84.43-1.27.61a17.06,17.06,0,0,1-1.68.64,4.84,4.84,0,0,0-1.58.58c-.92.73-.57,2.24-.4,3.22l0,.15a2.59,2.59,0,0,1-.06,1.51,4.06,4.06,0,0,1-1.1,1.27l-.08.07a5.61,5.61,0,0,0-1,1.18,8.71,8.71,0,0,0-.93-1.37c-.25-.33-.07-.44.11-.76a1.52,1.52,0,0,0,.2-1A2.33,2.33,0,0,0,21.5,45c-.61-.42-1.3-.73-1.93-1.12a27.55,27.55,0,0,1-3.72-2.73s-.08,0-.06,0A14.27,14.27,0,0,0,19.06,44.79Z"/><path d="M14,42.83a6.81,6.81,0,0,0,1.81-2.53.09.09,0,0,0-.14-.1,10.12,10.12,0,0,0-1.08.88c-.4.32-.8.64-1.21,1C12.75,42.49,13.44,43.33,14,42.83Z"/><path d="M1.14,59.74c.09-.46.18-.91.28-1.36l0-.19c.69-3.08,1.71-6.31,3.78-8.76s5.11-3.73,8-4.94a.1.1,0,0,0,0-.2l-.24.06A25,25,0,0,0,8,46a11.36,11.36,0,0,0-4.07,3.34c-2.11,2.76-3,6.11-3.69,9.45-.06.32-.12.64-.19,1Z"/><path class="cls-1" d="M7.82,19.74c.31-5.16,2-11,6.9-13.53C25.57,1.85,39.84,12.82,40.59,24c.26,3.84-1.86,8-5.75,9.09a9,9,0,0,1-3.47,2.46C16,43.55,6.06,37.06,7.82,19.74Z"/><path class="cls-2" d="M4.31,16.53Q5.14,14.26,6,12c.59-1.45,1.12-2.93,1.85-4.31C12.25-.5,20.18-.5,24.28.58c2.13-.92,6.11-.66,8.32.17,3.59,1.34,8,6.6,9.45,9,3.3,5.22,5.36,12.17,3.17,18.21a13.74,13.74,0,0,1-1.06,2.22,7.58,7.58,0,0,0,.88,1,30.63,30.63,0,0,1,2.81,3,14.87,14.87,0,0,1,2.07,3.52,8.53,8.53,0,0,1-.27,7.43,6.88,6.88,0,0,1-5.38,3.63l-.35,0a6.63,6.63,0,0,1-1.07,1.34c-1.28,1.21-4.31,1.83-6,1.87l-.26.21a18.75,18.75,0,0,1-3.39,2.27,3.92,3.92,0,0,1-2.76.45,1.5,1.5,0,0,1-1.41,0,3.75,3.75,0,0,1-1.46-1.62,8.7,8.7,0,0,1-.39-4.95q.33-2.77.64-5.55a22.42,22.42,0,0,1,.77-4.3,10.25,10.25,0,0,1,.91-2.06.29.29,0,0,1,0-.16,1.93,1.93,0,0,1,.69-.91l.12-.11a4.42,4.42,0,0,1,.5-.47l.2-.21a16.26,16.26,0,0,0,1.55-1.86,21.39,21.39,0,0,0,1.26-2c.39-.69.66-1.45,1.05-2.14a.12.12,0,0,1,.17,0,.58.58,0,0,1,.19.42h.06a.41.41,0,0,1,.51-.36,2,2,0,0,0,1.12,0l-.18-1.27c-.1-.78-.2-1.57-.29-2.35a3.57,3.57,0,0,0-.6.21,2.67,2.67,0,0,0-.78.5c-.23.21-.38.49-.66.63a.41.41,0,0,1-.6-.46c.18-.72,1.25-1.14,1.91-1.28a3.85,3.85,0,0,1,.69-.06c-.06-.5-.1-1-.14-1.51,0-.24,0-.48-.05-.72a3.88,3.88,0,0,0-1.59-.13l-.53.42-1.6,1.35-.15.13a.39.39,0,0,1-.65-.38c.43-3.15-1.49-5.65-3.75-7.59-2.49-2.14-7-2.39-10-6.11-1.36.28-4.41,1.11-5.67,3.12-1.77,2.81-1.54,5.33-1.67,8.52s-.48,6.52.25,9.67a9,9,0,0,0,5.29,6.52l.21.08a8.44,8.44,0,0,0,4.56.41,12,12,0,0,0,4.51-2c.08-.06.2.06.14.14C23.68,38.86,20,39.69,17.15,39l-.4-.1a7.57,7.57,0,0,1-.32,5.7,7.8,7.8,0,0,1-2.22,2.78,11.82,11.82,0,0,0-3,2.63,1.88,1.88,0,0,0,.66,2.84.56.56,0,0,1,.11.87l-.32.25A13.23,13.23,0,0,1,9,55.42c-2.49.29-4.17-1.54-5.24-3.7a8.62,8.62,0,0,1,.45-8c1.12-1.94,3.31-3.84,2.44-6.3a7,7,0,0,0-1.57-2.29c-.7-.77-1.46-1.49-2.14-2.28a8.13,8.13,0,0,1-1.6-2.64,8,8,0,0,1,.12-4.46C2.21,22.6,3.23,19.54,4.31,16.53Z"/><path class="cls-2" d="M22.69,28.22a15.13,15.13,0,0,0-4.18.48,18.43,18.43,0,0,1-2.21.24h-.45a.38.38,0,0,0-.25-.32,1.82,1.82,0,0,0-.94-.2,6.64,6.64,0,0,0-1,.1,3.05,3.05,0,0,0-1.6.78A2.82,2.82,0,0,0,12,32.94c1.59,2.21,4.49,2.31,7,2.28h.23c2.25,0,5.48.3,6.51-2.27a3.41,3.41,0,0,0-3-4.73Zm-7,3.68h0q1.56.06,3.12.09c0,.27-.06.53-.1.8l-.09.63a1.77,1.77,0,0,0-.05.32v0a.24.24,0,0,0-.14.12l0,.06a13.34,13.34,0,0,1-2.51-.16v0a.36.36,0,0,0-.11-.22,8.93,8.93,0,0,1-.08-1C15.67,32.32,15.65,32.11,15.64,31.9Zm3.94.1c.75,0,1.5,0,2.25,0h.34c-.07.39-.15.77-.22,1.16a.57.57,0,0,0,.6.65l-.1,0a20.73,20.73,0,0,1-2.95.1,4.82,4.82,0,0,0,0-.91v0C19.56,32.66,19.57,32.33,19.58,32Zm5.09-.07a1.91,1.91,0,0,1-.15.58,2.29,2.29,0,0,1-1.83,1.29.42.42,0,0,0,.27-.35A10,10,0,0,0,23.05,32,14.53,14.53,0,0,0,24.67,31.93Zm-11.86-.16a6.21,6.21,0,0,0,1.21.06l1.07.05c0,.24,0,.48-.05.72s0,.65-.09,1a3.79,3.79,0,0,1-1.83-1.26A2.54,2.54,0,0,1,12.81,31.77Zm10-2.28a2.32,2.32,0,0,1,1.58,1.06,2.24,2.24,0,0,1,.26,1.17c-.54-.06-1.09-.09-1.64-.11,0-.1,0-.2,0-.29v-.26A5.66,5.66,0,0,0,22.85,29.49Zm-3.32.06.28,0a12.46,12.46,0,0,1,2.36-.13l.34,0A10.75,10.75,0,0,0,22.33,31c0,.19,0,.38-.08.57h-.14l-2.53-.1v-.64A11.13,11.13,0,0,0,19.53,29.55Zm-3.94-.07a16,16,0,0,0,2.48.17c.32,0,.64,0,1,0,0,.17,0,.34-.05.51,0,.34-.07.69-.11,1l0,.29c-1,0-2.08-.09-3.11-.15h-.15l0-.58c0-.38-.06-.76-.1-1.14h0A.41.41,0,0,0,15.59,29.48Zm-.36.15c0,.54-.07,1.08-.1,1.62l-.68,0h-.34a4.71,4.71,0,0,0-1.45,0,1.11,1.11,0,0,1,.44-1.05C13.73,29.64,14.53,29.81,15.23,29.63Zm2.34-4.84c-1-.58-3.57-1.17-3.73.66a1.92,1.92,0,0,0,1.28,1.85h0c.68.28,1.9.6,2.49,0s-.16-1.42-.77-1c-.32.22-1,.06-1.33,0h0c-.38-.11-.88-.47-.73-.94s.74-.48,1.11-.5a14.73,14.73,0,0,1,1.63.15A.09.09,0,0,0,17.57,24.79Zm-4.21-2.94a2.11,2.11,0,0,0-1.93,2.68.57.57,0,0,0,.53.4h.14a.55.55,0,0,0,.4-.53v-.07c0-.58,0-1.25.72-1.39s.92.44.92,1a.13.13,0,0,0,.19.1,1,1,0,0,0,.34-1.21A1.43,1.43,0,0,0,13.36,21.85Zm10.23.32A2.21,2.21,0,0,0,21,23.26a.39.39,0,0,0-.32.38,1.13,1.13,0,0,0,.29.7.63.63,0,0,0,1-.26v0a1,1,0,0,1,1.3-.71c.64.22.62.9,1.07,1.29a.15.15,0,0,0,.18,0c.47-.23.39-.92.22-1.32A2.11,2.11,0,0,0,23.59,22.17ZM25,19.12c-.81-.83-2.93-1.63-3.49-.1a.61.61,0,0,0,.42.75,11.58,11.58,0,0,0,1.44-.08,2.15,2.15,0,0,1,1.14.42c.88.68,1.08,1.84,1.7,2.72,0,0,.08,0,.09,0A4.86,4.86,0,0,0,25,19.12Zm-10.61-.81a2.71,2.71,0,0,0-1.69,0,3.33,3.33,0,0,0-1.44.92,3.69,3.69,0,0,0-.47.63c-.07.12-.14.37-.22.51a.77.77,0,0,0-.22,1.21h0l0,.05a.82.82,0,0,0,.8.21c.62-.18.7-.67.91-1.19a2.21,2.21,0,0,1,.69-.88,3.29,3.29,0,0,1,2.7-.45s.1,0,.06-.08a2.69,2.69,0,0,0-.46-.55A2.49,2.49,0,0,0,14.35,18.31Z"/><path class="cls-2" d="M7.47,22.57c.79,5.34,6.3,5.94,7.28.63a.4.4,0,0,1-.24-.47,3.42,3.42,0,0,0-1.4-3A6.51,6.51,0,0,0,9.52,19C7.14,18.94,7.19,20.93,7.47,22.57Zm8.14-2.32A4,4,0,0,1,18,20.7a2.78,2.78,0,0,1,1.14-1.31,52.59,52.59,0,0,1-5.45-.26,3.44,3.44,0,0,1,1.1,1.25A2,2,0,0,1,15.61,20.25Zm3.3,2.89c2.07,7.13,7.24,4,7.8,3.11,1-1.52,1.21-5.19.32-6.17-1.27-.89-3.06-.66-4.56-.68C19.72,19.43,17.77,20.26,18.91,23.14ZM5,19.86A3,3,0,0,1,6.71,20,2.24,2.24,0,0,1,8,18.51c.07-.09.06-.13.29-.12a7.66,7.66,0,0,1,4.47.24c2.2.19,4.5.33,6.72.59,2.08-.93,8.35-1.07,8.74,1.23.49-.07,1.33-.46,1.74.06,3-.51,6.14.2,9.18.52.76.14,1.15,1.66.29,1.64-.49-.14,0-1-.65-1-2.92-.32-5.79-.77-8.75-.83.11.51-1.95.55-2,.25h0a7.8,7.8,0,0,1-.87,5.8c-1.28,1.54-4.52,2-5.95,1-1.85-.92-3.78-5.51-3.24-7a6.34,6.34,0,0,0-3-.06c.24.66.64,2.28.06,2.42.11,3.22-2.82,5.23-5.52,3.91C7.15,26,6.33,22.55,6.62,20.44,6.33,21,3.89,20.39,5,19.86Z"/></g></g></svg>